<svg width="41" height="40" viewBox="0 0 41 40" fill="none" xmlns="http://www.w3.org/2000/svg">
<g clip-path="url(#clip0_779_2342)">
<path d="M33.1259 36.2473C29.692 37.5185 25.8642 35.759 24.593 32.3251C23.3219 28.8912 25.0814 25.0634 28.5152 23.7923C31.9491 22.5211 35.7769 24.2806 37.0481 27.7144C38.3193 31.1483 36.5597 34.9762 33.1259 36.2473Z" fill="#EDEDED"/>
<path d="M40.1541 32.1605L38.5069 31.4034C38.636 30.6931 38.6681 29.9604 38.593 29.2249L40.2901 28.5966C40.6947 28.4469 40.9014 27.9974 40.7515 27.5927L39.9378 25.3948C39.7881 24.9902 39.3386 24.7835 38.9339 24.9334L37.2368 25.5616C36.815 24.9546 36.3135 24.4194 35.753 23.9644L36.5101 22.3172C36.6904 21.9252 36.5186 21.4613 36.1265 21.281L33.997 20.3022C33.605 20.122 33.1411 20.2938 32.9608 20.6858L32.2037 22.333C31.4935 22.2039 30.7608 22.1718 30.0253 22.2469L29.397 20.5498C29.2472 20.1452 28.7978 19.9385 28.3931 20.0884L26.1951 20.902C25.7905 21.0518 25.5839 21.5013 25.7337 21.906L26.362 23.6031C25.755 24.0249 25.2198 24.5264 24.7648 25.0869L23.6326 24.5665L23.1175 24.3298C22.7255 24.1495 22.2616 24.3213 22.0813 24.7134L21.1025 26.8429C20.9223 27.2349 21.094 27.6988 21.4861 27.8791L23.1333 28.6362C23.0042 29.3464 22.9721 30.0791 23.0472 30.8146L21.3501 31.4429C20.9455 31.5927 20.7388 32.0421 20.8887 32.4468L21.7023 34.6448C21.8521 35.0494 22.3016 35.256 22.7062 35.1062L24.4033 34.4779C24.8252 35.0849 25.3267 35.6201 25.8872 36.0751L25.1301 37.7223C24.9498 38.1144 25.1215 38.5783 25.5137 38.7585L27.6432 39.7373C28.0352 39.9176 28.4991 39.7458 28.6794 39.3537L29.4365 37.7065C30.1468 37.8356 30.8795 37.8677 31.615 37.7926L32.2433 39.4897C32.393 39.8944 32.8425 40.101 33.2472 39.9512L35.4451 39.1375C35.8497 38.9877 36.0564 38.5383 35.9065 38.1336L35.2782 36.4365C35.8853 36.0146 36.4205 35.5131 36.8755 34.9526L38.5227 35.7098C38.9147 35.8901 39.3786 35.7183 39.5589 35.3262L40.5377 33.1967C40.7179 32.8046 40.5462 32.3407 40.1541 32.1605ZM32.7187 35.1483C29.8908 36.1952 26.7384 34.7462 25.6915 31.9183C24.6447 29.0904 26.0937 25.938 28.9216 24.8911C31.7496 23.8442 34.9019 25.2933 35.9488 28.1212C36.9957 30.9491 35.5467 34.1015 32.7187 35.1483Z" fill="#A0A0A0"/>
<path d="M37.0481 27.7142C35.7769 24.2803 31.9491 22.5209 28.5152 23.792C25.0813 25.0632 23.3219 28.891 24.5931 32.3249C25.8642 35.7588 29.692 37.5183 33.1259 36.2471C36.5598 34.9759 38.3193 31.148 37.0481 27.7142ZM32.7191 35.1481C29.8911 36.195 26.7388 34.746 25.6919 31.918C24.645 29.0901 26.094 25.9377 28.922 24.8909C31.7499 23.844 34.9023 25.293 35.9491 28.1209C36.996 30.9489 35.547 34.1013 32.7191 35.1481Z" fill="#757575"/>
<path d="M32.3025 28.8538C32.3685 28.6764 32.4063 28.4855 32.4063 28.2854C32.4063 27.3822 31.6716 26.6475 30.7684 26.6475H29.3658C29.0421 26.6475 28.7799 26.9099 28.7799 27.2335V29.3374V32.4934C28.7799 32.817 29.0421 33.0793 29.3658 33.0793H31.6451C32.8382 33.0793 33.8089 32.1086 33.8089 30.9154C33.8089 29.9513 33.1752 29.1328 32.3025 28.8538ZM29.9517 27.8193H30.7684C31.0254 27.8193 31.2345 28.0284 31.2345 28.2853C31.2345 28.5423 31.0254 28.7514 30.7684 28.7514H29.9517V27.8193ZM31.6451 31.9073H29.9517V29.9233H30.7684H31.6451C32.192 29.9233 32.637 30.3683 32.637 30.9153C32.637 31.4624 32.192 31.9073 31.6451 31.9073ZM40.6537 20.3956C40.538 20.5264 40.3766 20.5932 40.2147 20.5932C40.0766 20.5932 39.9381 20.5447 39.8266 20.4461C36.8561 17.8174 32.9549 16.4104 29.0278 16.5302L30.1593 17.0999C30.4483 17.2454 30.5646 17.5977 30.4192 17.8867C30.3162 18.0912 30.1097 18.2093 29.8953 18.2093C29.8067 18.2093 29.7168 18.1891 29.6323 18.1465L27.2639 16.9541C26.9749 16.8086 26.8586 16.4563 27.0041 16.1673L28.1965 13.7989C28.3421 13.5099 28.6943 13.3935 28.9834 13.539C29.2724 13.6845 29.3887 14.0368 29.2432 14.3258L28.718 15.3691C33.0329 15.165 37.3411 16.6817 40.6032 19.5685C40.8456 19.783 40.8681 20.1533 40.6537 20.3956Z" fill="#757575"/>
<path d="M16.9881 19.8332C12.9003 21.9104 7.88468 20.2746 5.80757 16.1867C3.73039 12.099 5.36616 7.0834 9.45397 5.0063C13.5418 2.92912 18.5574 4.56489 20.6345 8.65278C22.7117 12.7405 21.0759 17.7561 16.9881 19.8332Z" fill="#B1EAD4"/>
<path d="M19.6026 19.6556C20.2871 19.0517 20.8722 18.3603 21.3504 17.6081L23.4787 18.3022C23.9853 18.4675 24.5298 18.1908 24.695 17.6842L25.5925 14.9327C25.7577 14.4262 25.481 13.8816 24.9744 13.7164L22.8461 13.0222C22.9033 12.1326 22.8384 11.2294 22.6415 10.338L24.6338 9.32561C25.1088 9.08429 25.2982 8.50351 25.0568 8.02851L23.7457 5.44836C23.5044 4.97336 22.9236 4.78398 22.4486 5.02531L20.4564 6.03765C19.8525 5.35312 19.1611 4.76805 18.4089 4.28977L19.103 2.16149C19.2683 1.65493 18.9915 1.1104 18.485 0.945163L15.7334 0.0478206C15.2269 -0.117413 14.6823 0.159305 14.5171 0.665866L13.823 2.79414C12.9333 2.73696 12.0301 2.80188 11.1387 2.99875L10.1263 1.00649C9.88499 0.531492 9.30421 0.342117 8.82921 0.583445L6.24914 1.89454C5.77414 2.13586 5.58476 2.71664 5.82609 3.19164L6.83843 5.1839C6.1539 5.78781 5.56883 6.47921 5.09055 7.2314L3.62774 6.75429L2.96227 6.53726C2.45571 6.37203 1.91118 6.64874 1.74594 7.15531L0.848602 9.90679C0.683368 10.4133 0.960086 10.9579 1.46665 11.1231L3.59492 11.8173C3.53774 12.7069 3.60266 13.6101 3.79953 14.5015L1.80727 15.5139C1.33227 15.7552 1.1429 16.336 1.38423 16.811L2.69532 19.3911C2.93664 19.8661 3.51742 20.0555 3.99242 19.8142L5.98469 18.8018C6.58859 19.4864 7.28 20.0715 8.03218 20.5497L7.33804 22.678C7.17281 23.1846 7.44953 23.7291 7.95609 23.8943L10.7076 24.7918C11.2141 24.957 11.7587 24.6803 11.9239 24.1737L12.618 22.0454C13.5076 22.1026 14.4109 22.0376 15.3023 21.8408L16.3147 23.8331C16.556 24.3081 17.1368 24.4975 17.6118 24.2561L20.1919 22.945C20.6669 22.7037 20.8563 22.1229 20.615 21.6479L19.6026 19.6556ZM16.2797 18.4401C12.96 20.1268 8.88695 18.7985 7.20015 15.4788C5.51336 12.1591 6.84172 8.08609 10.1614 6.39929C13.4811 4.7125 17.5541 6.04086 19.2409 9.36054C20.9277 12.6802 19.5993 16.7533 16.2797 18.4401Z" fill="#7CC3AC"/>
<path d="M20.6345 8.6527C18.5574 4.5649 13.5419 2.92912 9.45398 5.0063C5.3661 7.08348 3.7304 12.099 5.80758 16.1868C7.88477 20.2746 12.9003 21.9104 16.9881 19.8333C21.0759 17.7561 22.7117 12.7405 20.6345 8.6527ZM16.2802 18.4401C12.9606 20.127 8.8875 18.7985 7.20071 15.4789C5.51391 12.1593 6.84227 8.08622 10.162 6.39942C13.4816 4.71263 17.5546 6.04099 19.2415 9.36067C20.9283 12.6803 19.5998 16.7533 16.2802 18.4401Z" fill="#61AE9F"/>
<path d="M19.2111 27.3587L18.5771 29.9335C18.5114 30.2006 18.2721 30.3794 18.0087 30.3794C17.9623 30.3794 17.9153 30.3739 17.8682 30.3622C17.5539 30.2849 17.362 29.9674 17.4393 29.6532L17.7186 28.5187C16.2629 28.925 14.7611 29.1266 13.2599 29.1266C10.47 29.1266 7.68208 28.4332 5.19607 27.0768C4.91193 26.9218 4.80733 26.5658 4.96232 26.2818C5.11725 25.9977 5.47326 25.8931 5.75732 26.048C9.23935 27.9478 13.3566 28.4488 17.1575 27.4563L15.9275 27.1534C15.6133 27.076 15.4214 26.7585 15.4987 26.4443C15.5761 26.1302 15.8933 25.9382 16.2077 26.0155L18.7824 26.6495C19.0965 26.7271 19.2885 27.0445 19.2111 27.3587ZM10.4767 14.9687L11.2019 12.793C11.2022 12.7922 11.2025 12.7914 11.2028 12.7905L12.1843 9.84593C12.3331 9.39944 12.7493 9.09937 13.2201 9.09937C13.6907 9.09937 14.107 9.39936 14.2558 9.84577L15.2372 12.79C15.2375 12.7911 15.238 12.7922 15.2383 12.7933L15.9635 14.9687C16.0658 15.2758 15.9 15.6076 15.5929 15.7099C15.5314 15.7304 15.4689 15.7401 15.4075 15.7401C15.1621 15.7401 14.9336 15.5849 14.8518 15.3394L14.2561 13.5525H12.1841L11.5885 15.3394C11.4861 15.6463 11.1542 15.8121 10.8473 15.71C10.5403 15.6076 10.3744 15.2758 10.4767 14.9687ZM12.5747 12.3806H13.8654L13.22 10.4444L12.5747 12.3806Z" fill="#4A7273"/>
</g>
<defs>
<clipPath id="clip0_779_2342">
<rect width="40" height="40" fill="white" transform="translate(0.800781)"/>
</clipPath>
</defs>
</svg>
